<?xml version="1.0" encoding="UTF-8"?>
<svg width="128pt" height="128pt" version="1.1" viewBox="0 0 128 128" xmlns="http://www.w3.org/2000/svg">
 <path d="m66.562 0.28516s24.477 25.652 35.977 95.562c-20.738-65.176-35.977-95.562-35.977-95.562z" fill-rule="evenodd"/>
 <path d="m75.781 80.672s-30.332-1.0586-50.113 47.273c27.109-37.559 50.113-47.273 50.113-47.273z" fill-rule="evenodd"/>
 <path d="m54.957 18.91s-23.926 38.797-28.801 97.113c15.164-54.379 28.801-97.113 28.801-97.113z" fill-rule="evenodd"/>
 <path d="m60.473 33.355c1.625-1.875 3.7539-3.9102 6.4414-3.6953 2.1289-0.33594 3.6992 1.4102 4.8281 2.9492 2.9766 4.6445 3.4023 10.445 2.6641 15.785-0.68359 2.9688-1.5 6.2227-3.9844 8.2266-1.4219 1.4062-3.9375 0.76953-5.0195-0.75391-1.5391-2.3164-2.1445-5.3047-1.2773-7.9883 0.53906 0.83984 1.0273 1.7188 1.6562 2.5039 0.58203 0.87891 2.1328 0.95703 2.6758-0.011718 1.5703-2.2812 2.5469-5.0391 2.543-7.8242-0.23047-2.2383-0.65625-4.8203-2.5977-6.2422-1.2461-0.89844-2.9844-0.51172-4.043 0.49609-2.2344 1.7383-2.7227 4.6992-3.3672 7.2812-0.44141 4.2969-0.66797 8.8047 0.89844 12.914 0.86328 2.3125 2.0391 4.6328 4.0312 6.168 1.6914 1.3711 3.8398 2.207 6.0391 2.0586-0.85547 1.3516-2.0898 2.8359-3.8477 2.7695-2.918 0.28516-5.3164-1.8164-6.9609-3.9883-2.6992-4.0117-3.9453-8.8281-4.3203-13.605-0.27344-5.8359 0.32031-12.059 3.6406-17.043" fill-rule="evenodd"/>
</svg>
